<?xml version="1.0" encoding="UTF-8"?>
<svg id="Layer_1" xmlns="http://www.w3.org/2000/svg" xmlns:xlink="http://www.w3.org/1999/xlink" viewBox="0 0 400 400">
  <defs>
    <style>
      .cls-1 {
        fill: url(#linear-gradient-4);
      }

      .cls-2 {
        fill: url(#linear-gradient-3);
      }

      .cls-3 {
        fill: url(#linear-gradient-2);
      }

      .cls-4 {
        fill: url(#linear-gradient);
      }

      .cls-5 {
        fill: #fff;
      }
    </style>
    <linearGradient id="linear-gradient" x1="200" y1="393" x2="200" y2="7" gradientUnits="userSpaceOnUse">
      <stop offset="0" stop-color="#003291"/>
      <stop offset="1" stop-color="#004991"/>
    </linearGradient>
    <linearGradient id="linear-gradient-2" x1="200" y1="390.63" x2="200" y2="25.47" gradientUnits="userSpaceOnUse">
      <stop offset="0" stop-color="#005791"/>
      <stop offset="1" stop-color="#007791"/>
    </linearGradient>
    <linearGradient id="linear-gradient-3" x1="200" y1="393" x2="200" y2="7" gradientUnits="userSpaceOnUse">
      <stop offset="0" stop-color="#002262"/>
      <stop offset="1" stop-color="#003162"/>
    </linearGradient>
    <linearGradient id="linear-gradient-4" x1="200" y1="391.4" x2="200" y2="24.42" gradientUnits="userSpaceOnUse">
      <stop offset="0" stop-color="#003b62"/>
      <stop offset="1" stop-color="#005062"/>
    </linearGradient>
  </defs>
  <path class="cls-4" d="M238.9,389.08c26.33-5.39,50.83-16.05,72.82-31.68,2.5-1.78,5-3.65,7.43-5.56,4.83-3.8,9.55-7.88,14-12.13,4.46-4.25,8.76-8.76,12.78-13.41,3.03-3.5,5.96-7.14,8.72-10.83,25.08-33.54,38.34-73.47,38.34-115.47,0-11.48-1.01-22.98-3.01-34.17-.56-3.14-1.21-6.31-1.93-9.42-1.42-6.17-3.17-12.33-5.2-18.31-2-5.93-4.33-11.82-6.91-17.52-1.28-2.82-2.64-5.66-4.07-8.44-1.41-2.76-2.91-5.52-4.46-8.2-2.31-4.01-4.79-8-7.39-11.84-2.01-2.98-4.23-6.06-6.61-9.16-2.49-3.25-5.01-6.36-7.5-9.23-2.01-2.33-4.11-4.63-6.23-6.85-2.56-2.69-5.36-5.44-8.31-8.18-4.01-3.73-8.13-7.26-12.25-10.5-2.43-1.91-4.93-3.78-7.43-5.56-4.43-3.15-9.15-6.2-14.02-9.07-2.16-1.27-3.97-2.3-5.71-3.25-16.67-9.05-34.53-15.57-53.09-19.37-1.57-.32-3.15-.62-4.73-.91-4.75-.85-9.61-1.53-14.43-2.02-6.51-.66-13.15-1-19.74-1s-13.23.34-19.74,1c-4.82.49-9.68,1.17-14.43,2.02-1.58.28-3.16.59-4.73.91-18.56,3.8-36.42,10.31-53.09,19.37-1.71.93-3.53,1.96-5.71,3.25-4.87,2.86-9.59,5.91-14.02,9.07-2.52,1.79-5.02,3.66-7.43,5.56-4.12,3.24-8.24,6.77-12.25,10.5-2.95,2.75-5.75,5.5-8.31,8.18-2.13,2.24-4.23,4.54-6.23,6.85-2.48,2.86-5,5.97-7.5,9.24-2.42,3.16-4.58,6.16-6.61,9.16-2.6,3.85-5.08,7.83-7.39,11.84-1.55,2.69-3.05,5.45-4.46,8.2-1.42,2.77-2.79,5.61-4.06,8.44-2.58,5.7-4.9,11.6-6.91,17.52-2.03,5.98-3.77,12.14-5.2,18.31-.71,3.09-1.36,6.26-1.93,9.42-2,11.2-3.01,22.7-3.01,34.17,0,42,13.26,81.93,38.34,115.47,2.77,3.7,5.7,7.34,8.72,10.83,4.03,4.65,8.33,9.16,12.78,13.4,4.45,4.25,9.17,8.33,14.01,12.13,2.42,1.9,4.92,3.77,7.43,5.56,21.99,15.63,46.48,26.29,72.82,31.68,1.57.32,3.15.62,4.73.91,4.76.85,9.61,1.53,14.43,2.02,13.02,1.32,26.47,1.32,39.48,0,4.82-.49,9.67-1.17,14.43-2.02,1.58-.28,3.16-.59,4.73-.91Z"/>
  <path class="cls-3" d="M272.95,377.95l65.77-76.65,29.73-93.47-44.6-122.9-119.69-59.47-110.25,43.61-47.57,80.28-14.78,70.37,76.23,93.17,138.76,25.77,59.47-70.37-9.91-124.88-91.94-56.49-69.62,27.75s-46.58,49.56-47.57,55.5c-.99,5.95,33.7,79.29,35.68,83.25,1.98,3.96,104.07,23.79,104.07,23.79l31.72-64.95s-42.62-44.08-45.59-44.08-52.53.99-57.49,3.96c-4.96,2.97-8.92,32.65-7.93,40.11s46.58,20.35,46.58,20.35c0,0,11.38-13.94,10.15-20.35-1.23-6.41-23.03-8.39-23.03-8.39l3.96-10.25h29.73l4.96,39-46.58,15.81-50.55-44.55,8.92-49.48,68.43-26.84,56.45,44.6,21.8,57.49-39.65,77.31-114.97-25.77-56.49-104.95,45.59-84.35,80.28-31.52,115.96,67.2,19.82,120.87-48.57,79.34-54.82,62.86c.37.02,2.88-.33,6.42-.94,1.41-.24,2.96-.58,4.67-.83.9-.13,1.83-.34,2.83-.58.37-.09.77-.23,1.15-.31,12.66-2.32,26.05-7.45,30.29-9.06.26-.1,1.81-.65,2.17-.96Z"/>
  <g>
    <path class="cls-2" d="M238.9,389.08c26.33-5.39,50.83-16.05,72.82-31.68,2.5-1.78,5-3.65,7.43-5.56,4.83-3.8,9.55-7.88,14-12.13,4.46-4.25,8.76-8.76,12.78-13.41,3.03-3.5,5.96-7.14,8.72-10.83,25.08-33.54,38.34-73.47,38.34-115.47,0-11.48-1.01-22.98-3.01-34.17-.56-3.14-1.21-6.31-1.93-9.42-1.42-6.17-3.17-12.33-5.2-18.31-2-5.93-4.33-11.82-6.91-17.52-1.28-2.82-2.64-5.66-4.07-8.44-1.41-2.76-2.91-5.52-4.46-8.2-2.31-4.01-4.79-8-7.39-11.84-2.01-2.98-4.23-6.06-6.61-9.16-2.49-3.25-5.01-6.36-7.5-9.23-2.01-2.33-4.11-4.63-6.23-6.85-2.56-2.69-5.36-5.44-8.31-8.18-4.01-3.73-8.13-7.26-12.25-10.5-2.43-1.91-4.93-3.78-7.43-5.56-4.43-3.15-9.15-6.2-14.02-9.07-2.16-1.27-3.97-2.3-5.71-3.25-16.67-9.05-34.53-15.57-53.09-19.37-1.57-.32-3.15-.62-4.73-.91-4.75-.85-9.61-1.53-14.43-2.02-6.51-.66-13.15-1-19.74-1s-13.23.34-19.74,1c-4.82.49-9.68,1.17-14.43,2.02-1.58.28-3.16.59-4.73.91-18.56,3.8-36.42,10.31-53.09,19.37-1.71.93-3.53,1.96-5.71,3.25-4.87,2.86-9.59,5.91-14.02,9.07-2.52,1.79-5.02,3.66-7.43,5.56-4.12,3.24-8.24,6.77-12.25,10.5-2.95,2.75-5.75,5.5-8.31,8.18-2.13,2.24-4.23,4.54-6.23,6.85-2.48,2.86-5,5.97-7.5,9.24-2.42,3.16-4.58,6.16-6.61,9.16-2.6,3.85-5.08,7.83-7.39,11.84-1.55,2.69-3.05,5.45-4.46,8.2-1.42,2.77-2.79,5.61-4.06,8.44-2.58,5.7-4.9,11.6-6.91,17.52-2.03,5.98-3.77,12.14-5.2,18.31-.71,3.09-1.36,6.26-1.93,9.42-2,11.2-3.01,22.7-3.01,34.17,0,42,13.26,81.93,38.34,115.47,2.77,3.7,5.7,7.34,8.72,10.83,4.03,4.65,8.33,9.16,12.78,13.4,4.45,4.25,9.17,8.33,14.01,12.13,2.42,1.9,4.92,3.77,7.43,5.56,21.99,15.63,46.48,26.29,72.82,31.68,1.57.32,3.15.62,4.73.91,4.76.85,9.61,1.53,14.43,2.02,13.02,1.32,26.47,1.32,39.48,0,4.82-.49,9.67-1.17,14.43-2.02,1.58-.28,3.16-.59,4.73-.91Z"/>
    <path class="cls-1" d="M224.92,391.4c3.1-.4,6.2-.87,9.25-1.41,1.58-.28,3.16-.59,4.73-.91,14.76-3.02,28.94-7.7,42.43-13.98l57.39-74.84,29.73-93.47-44.6-122.9-119.69-59.47-110.25,43.61-47.57,80.28-14.78,70.37,76.23,93.17,138.76,25.77,59.47-70.37-9.91-124.88-91.94-56.49-69.62,27.75s-46.58,49.56-47.57,55.5,33.7,79.29,35.68,83.25c1.98,3.96,104.07,23.79,104.07,23.79l31.72-64.95s-42.62-44.08-45.59-44.08-52.53.99-57.49,3.96c-4.96,2.97-8.92,32.65-7.93,40.11s46.58,20.35,46.58,20.35c0,0,11.38-13.94,10.15-20.35-1.23-6.41-23.03-8.39-23.03-8.39l3.96-10.25h29.73l4.96,39-46.58,15.81-50.55-44.55,8.92-49.48,68.43-26.84,56.45,44.6,21.8,57.49-39.65,77.31-114.97-25.77-56.49-104.95,45.59-84.35,80.28-31.52,115.96,67.2,19.82,120.87-48.57,79.34-55.32,64.69Z"/>
  </g>
  <g>
    <path class="cls-5" d="M229.36,207.24l13.13-13.13-24.93-24.93-13.13,13.13c-7.38-4.64-15.58-8.08-24.33-10.08v-18.57h-35.25v18.57c-8.75,2-16.95,5.44-24.33,10.08l-13.13-13.13-24.93,24.93,13.13,13.13c-4.64,7.38-8.08,15.58-10.08,24.33h-18.57v35.25h18.57c2,8.75,5.44,16.95,10.08,24.33l-13.13,13.13,24.93,24.93,13.13-13.13c7.38,4.64,15.58,8.08,24.33,10.08v18.57h35.25v-18.57c8.75-2,16.95-5.44,24.33-10.08l13.13,13.13,24.93-24.93-13.13-13.13c4.64-7.38,8.08-15.58,10.08-24.33h18.57v-35.25h-18.57c-2-8.75-5.44-16.95-10.08-24.33ZM137.69,249.05c0-13.75,11.19-24.94,24.94-24.94s24.94,11.19,24.94,24.94-11.19,24.94-24.94,24.94-24.94-11.19-24.94-24.94ZM162.47,194.31c8.72,0,16.96,2.05,24.28,5.68l-14.49,14.49c-3.07-.85-6.29-1.32-9.63-1.32s-6.74.49-9.88,1.39l-14.56-14.56c7.33-3.63,15.57-5.68,24.28-5.68ZM107.58,249.2c0-8.72,2.05-16.96,5.68-24.28l14.74,14.74c-.81,2.99-1.25,6.14-1.25,9.39s.47,6.56,1.32,9.63l-14.81,14.81c-3.63-7.33-5.68-15.57-5.68-24.28ZM162.47,304.09c-8.72,0-16.96-2.05-24.28-5.68l14.8-14.8c3.07.86,6.3,1.32,9.64,1.32s6.4-.44,9.39-1.25l14.73,14.73c-7.33,3.63-15.57,5.68-24.28,5.68ZM197.13,258.93c.9-3.14,1.39-6.45,1.39-9.88s-.47-6.57-1.32-9.65l14.49-14.49c3.63,7.33,5.68,15.57,5.68,24.28s-2.05,16.96-5.68,24.28l-14.55-14.55Z"/>
    <path class="cls-5" d="M173.15,118.29l-9.89,4.47,8.48,18.77,9.89-4.47c3.17,4.18,6.97,7.72,11.22,10.53l-3.83,10.15,19.27,7.28,3.83-10.15c5.04.7,10.24.56,15.38-.48l4.47,9.89,18.77-8.48-4.47-9.89c4.18-3.17,7.72-6.97,10.53-11.22l10.15,3.83,7.28-19.27-10.15-3.83c.7-5.04.56-10.24-.48-15.38l9.89-4.47-8.48-18.77-9.89,4.47c-3.17-4.18-6.97-7.72-11.22-10.53l3.83-10.15-19.27-7.28-3.83,10.15c-5.04-.7-10.24-.56-15.38.48l-4.47-9.89-18.77,8.48,4.47,9.89c-4.18,3.17-7.72,6.97-10.53,11.22l-10.15-3.83-7.28,19.27,10.15,3.83c-.7,5.04-.56,10.24.48,15.38ZM247.6,95.97c7.28,16.12.09,35.15-16.03,42.43-16.12,7.28-35.15.09-42.43-16.03-7.28-16.12-.09-35.15,16.03-42.43,16.12-7.28,35.15-.09,42.43,16.03Z"/>
    <path class="cls-5" d="M199.32,117.68c4.77,10.55,17.18,15.24,27.74,10.48,10.55-4.77,15.24-17.18,10.48-27.74-4.77-10.55-17.18-15.24-27.74-10.48-10.55,4.77-15.24,17.18-10.48,27.74ZM212.42,95.77c7.32-3.31,15.97-.04,19.28,7.28,3.31,7.32.04,15.97-7.28,19.28-7.32,3.31-15.97.04-19.28-7.28-3.31-7.32-.04-15.97,7.28-19.28Z"/>
    <path class="cls-5" d="M322.92,214.51l8.2,3.04,5.78-15.57-8.2-3.04c.54-4.07.4-8.26-.46-12.4l7.95-3.65-6.93-15.1-7.95,3.65c-2.58-3.36-5.66-6.19-9.1-8.44l3.04-8.2-15.57-5.78-3.04,8.2c-4.07-.54-8.26-.4-12.4.46l-3.65-7.95-15.1,6.93,3.65,7.95c-3.36,2.58-6.19,5.66-8.44,9.1l-8.2-3.04-5.78,15.57,8.2,3.04c-.54,4.07-.4,8.26.46,12.4l-7.95,3.65,6.93,15.1,7.95-3.65c2.58,3.36,5.66,6.19,9.1,8.44l-3.04,8.2,15.57,5.78,3.04-8.2c4.07.54,8.26.4,12.4-.46l3.65,7.95,15.1-6.93-3.65-7.95c3.36-2.58,6.19-5.66,8.44-9.1ZM263.17,194.11c0-8.52,3.75-16.18,9.67-21.44l.07.16c0-.07,0-.15,0-.23,5.05-4.44,11.66-7.14,18.89-7.14,15.79,0,28.65,12.85,28.65,28.64s-12.85,28.64-28.65,28.64-28.64-12.85-28.64-28.64Z"/>
  </g>
</svg>