<?xml version="1.0" encoding="UTF-8"?>
<svg id="Layer_1" xmlns="http://www.w3.org/2000/svg" xmlns:xlink="http://www.w3.org/1999/xlink" viewBox="0 0 400 400">
  <defs>
    <style>
      .cls-1 {
        fill: url(#linear-gradient-4);
      }

      .cls-2 {
        fill: url(#linear-gradient-3);
      }

      .cls-3 {
        fill: url(#linear-gradient-2);
      }

      .cls-4 {
        fill: url(#linear-gradient);
      }

      .cls-5 {
        fill: #fff;
      }
    </style>
    <linearGradient id="linear-gradient" x1="200" y1="393" x2="200" y2="7" gradientUnits="userSpaceOnUse">
      <stop offset="0" stop-color="#003291"/>
      <stop offset="1" stop-color="#004991"/>
    </linearGradient>
    <linearGradient id="linear-gradient-2" x1="200" y1="390.63" x2="200" y2="25.47" gradientUnits="userSpaceOnUse">
      <stop offset="0" stop-color="#005791"/>
      <stop offset="1" stop-color="#007791"/>
    </linearGradient>
    <linearGradient id="linear-gradient-3" y1="393" y2="7" xlink:href="#linear-gradient"/>
    <linearGradient id="linear-gradient-4" x1="200" y1="391.4" x2="200" y2="24.42" xlink:href="#linear-gradient-2"/>
  </defs>
  <path class="cls-4" d="M238.9,389.08c26.33-5.39,50.83-16.05,72.82-31.68,2.5-1.78,5-3.65,7.43-5.56,4.83-3.8,9.55-7.88,14-12.13,4.46-4.25,8.76-8.76,12.78-13.41,3.03-3.5,5.96-7.14,8.72-10.83,25.08-33.54,38.34-73.47,38.34-115.47,0-11.48-1.01-22.98-3.01-34.17-.56-3.14-1.21-6.31-1.93-9.42-1.42-6.17-3.17-12.33-5.2-18.31-2-5.93-4.33-11.82-6.91-17.52-1.28-2.82-2.64-5.66-4.07-8.44-1.41-2.76-2.91-5.52-4.46-8.2-2.31-4.01-4.79-8-7.39-11.84-2.01-2.98-4.23-6.06-6.61-9.16-2.49-3.25-5.01-6.36-7.5-9.23-2.01-2.33-4.11-4.63-6.23-6.85-2.56-2.69-5.36-5.44-8.31-8.18-4.01-3.73-8.13-7.26-12.25-10.5-2.43-1.91-4.93-3.78-7.43-5.56-4.43-3.15-9.15-6.2-14.02-9.07-2.16-1.27-3.97-2.3-5.71-3.25-16.67-9.05-34.53-15.57-53.09-19.37-1.57-.32-3.15-.62-4.73-.91-4.75-.85-9.61-1.53-14.43-2.02-6.51-.66-13.15-1-19.74-1s-13.23.34-19.74,1c-4.82.49-9.68,1.17-14.43,2.02-1.58.28-3.16.59-4.73.91-18.56,3.8-36.42,10.31-53.09,19.37-1.71.93-3.53,1.96-5.71,3.25-4.87,2.86-9.59,5.91-14.02,9.07-2.52,1.79-5.02,3.66-7.43,5.56-4.12,3.24-8.24,6.77-12.25,10.5-2.95,2.75-5.75,5.5-8.31,8.18-2.13,2.24-4.23,4.54-6.23,6.85-2.48,2.86-5,5.97-7.5,9.24-2.42,3.16-4.58,6.16-6.61,9.16-2.6,3.85-5.08,7.83-7.39,11.84-1.55,2.69-3.05,5.45-4.46,8.2-1.42,2.77-2.79,5.61-4.06,8.44-2.58,5.7-4.9,11.6-6.91,17.52-2.03,5.98-3.77,12.14-5.2,18.31-.71,3.09-1.36,6.26-1.93,9.42-2,11.2-3.01,22.7-3.01,34.17,0,42,13.26,81.93,38.34,115.47,2.77,3.7,5.7,7.34,8.72,10.83,4.03,4.65,8.33,9.16,12.78,13.4,4.45,4.25,9.17,8.33,14.01,12.13,2.42,1.9,4.92,3.77,7.43,5.56,21.99,15.63,46.48,26.29,72.82,31.68,1.57.32,3.15.62,4.73.91,4.76.85,9.61,1.53,14.43,2.02,13.02,1.32,26.47,1.32,39.48,0,4.82-.49,9.67-1.17,14.43-2.02,1.58-.28,3.16-.59,4.73-.91Z"/>
  <path class="cls-3" d="M272.95,377.95l65.77-76.65,29.73-93.47-44.6-122.9-119.69-59.47-110.25,43.61-47.57,80.28-14.78,70.37,76.23,93.17,138.76,25.77,59.47-70.37-9.91-124.88-91.94-56.49-69.62,27.75s-46.58,49.56-47.57,55.5c-.99,5.95,33.7,79.29,35.68,83.25,1.98,3.96,104.07,23.79,104.07,23.79l31.72-64.95s-42.62-44.08-45.59-44.08-52.53.99-57.49,3.96c-4.96,2.97-8.92,32.65-7.93,40.11s46.58,20.35,46.58,20.35c0,0,11.38-13.94,10.15-20.35-1.23-6.41-23.03-8.39-23.03-8.39l3.96-10.25h29.73l4.96,39-46.58,15.81-50.55-44.55,8.92-49.48,68.43-26.84,56.45,44.6,21.8,57.49-39.65,77.31-114.97-25.77-56.49-104.95,45.59-84.35,80.28-31.52,115.96,67.2,19.82,120.87-48.57,79.34-54.82,62.86c.37.02,2.88-.33,6.42-.94,1.41-.24,2.96-.58,4.67-.83.9-.13,1.83-.34,2.83-.58.37-.09.77-.23,1.15-.31,12.66-2.32,26.05-7.45,30.29-9.06.26-.1,1.81-.65,2.17-.96Z"/>
  <g>
    <path class="cls-2" d="M238.9,389.08c26.33-5.39,50.83-16.05,72.82-31.68,2.5-1.78,5-3.65,7.43-5.56,4.83-3.8,9.55-7.88,14-12.13,4.46-4.25,8.76-8.76,12.78-13.41,3.03-3.5,5.96-7.14,8.72-10.83,25.08-33.54,38.34-73.47,38.34-115.47,0-11.48-1.01-22.98-3.01-34.17-.56-3.14-1.21-6.31-1.93-9.42-1.42-6.17-3.17-12.33-5.2-18.31-2-5.93-4.33-11.82-6.91-17.52-1.28-2.82-2.64-5.66-4.07-8.44-1.41-2.76-2.91-5.52-4.46-8.2-2.31-4.01-4.79-8-7.39-11.84-2.01-2.98-4.23-6.06-6.61-9.16-2.49-3.25-5.01-6.36-7.5-9.23-2.01-2.33-4.11-4.63-6.23-6.85-2.56-2.69-5.36-5.44-8.31-8.18-4.01-3.73-8.13-7.26-12.25-10.5-2.43-1.91-4.93-3.78-7.43-5.56-4.43-3.15-9.15-6.2-14.02-9.07-2.16-1.27-3.97-2.3-5.71-3.25-16.67-9.05-34.53-15.57-53.09-19.37-1.57-.32-3.15-.62-4.73-.91-4.75-.85-9.61-1.53-14.43-2.02-6.51-.66-13.15-1-19.74-1s-13.23.34-19.74,1c-4.82.49-9.68,1.17-14.43,2.02-1.58.28-3.16.59-4.73.91-18.56,3.8-36.42,10.31-53.09,19.37-1.71.93-3.53,1.96-5.71,3.25-4.87,2.86-9.59,5.91-14.02,9.07-2.52,1.79-5.02,3.66-7.43,5.56-4.12,3.24-8.24,6.77-12.25,10.5-2.95,2.75-5.75,5.5-8.31,8.18-2.13,2.24-4.23,4.54-6.23,6.85-2.48,2.86-5,5.97-7.5,9.24-2.42,3.16-4.58,6.16-6.61,9.16-2.6,3.85-5.08,7.83-7.39,11.84-1.55,2.69-3.05,5.45-4.46,8.2-1.42,2.77-2.79,5.61-4.06,8.44-2.58,5.7-4.9,11.6-6.91,17.52-2.03,5.98-3.77,12.14-5.2,18.31-.71,3.09-1.36,6.26-1.93,9.42-2,11.2-3.01,22.7-3.01,34.17,0,42,13.26,81.93,38.34,115.47,2.77,3.7,5.7,7.34,8.72,10.83,4.03,4.65,8.33,9.16,12.78,13.4,4.45,4.25,9.17,8.33,14.01,12.13,2.42,1.9,4.92,3.77,7.43,5.56,21.99,15.63,46.48,26.29,72.82,31.68,1.57.32,3.15.62,4.73.91,4.76.85,9.61,1.53,14.43,2.02,13.02,1.32,26.47,1.32,39.48,0,4.82-.49,9.67-1.17,14.43-2.02,1.58-.28,3.16-.59,4.73-.91Z"/>
    <path class="cls-1" d="M224.92,391.4c3.1-.4,6.2-.87,9.25-1.41,1.58-.28,3.16-.59,4.73-.91,14.76-3.02,28.94-7.7,42.43-13.98l57.39-74.84,29.73-93.47-44.6-122.9-119.69-59.47-110.25,43.61-47.57,80.28-14.78,70.37,76.23,93.17,138.76,25.77,59.47-70.37-9.91-124.88-91.94-56.49-69.62,27.75s-46.58,49.56-47.57,55.5,33.7,79.29,35.68,83.25c1.98,3.96,104.07,23.79,104.07,23.79l31.72-64.95s-42.62-44.08-45.59-44.08-52.53.99-57.49,3.96c-4.96,2.97-8.92,32.65-7.93,40.11s46.58,20.35,46.58,20.35c0,0,11.38-13.94,10.15-20.35-1.23-6.41-23.03-8.39-23.03-8.39l3.96-10.25h29.73l4.96,39-46.58,15.81-50.55-44.55,8.92-49.48,68.43-26.84,56.45,44.6,21.8,57.49-39.65,77.31-114.97-25.77-56.49-104.95,45.59-84.35,80.28-31.52,115.96,67.2,19.82,120.87-48.57,79.34-55.32,64.69Z"/>
  </g>
  <g>
    <path class="cls-5" d="M224.78,206.3l10.94-10.94-20.77-20.77-10.94,10.94c-6.15-3.87-12.98-6.74-20.28-8.4v-15.47h-29.38v15.47c-7.3,1.66-14.13,4.54-20.28,8.4l-10.94-10.94-20.77,20.77,10.94,10.94c-3.87,6.15-6.74,12.98-8.4,20.28h-15.47v29.38h15.47c1.66,7.3,4.54,14.13,8.4,20.28l-10.94,10.94,20.77,20.77,10.94-10.94c6.15,3.87,12.98,6.74,20.28,8.4v15.47h29.38v-15.47c7.3-1.66,14.13-4.54,20.28-8.4l10.94,10.94,20.77-20.77-10.94-10.94c3.87-6.15,6.74-12.98,8.4-20.28h15.47v-29.38h-15.47c-1.66-7.3-4.54-14.13-8.4-20.28ZM148.4,241.14c0-11.46,9.33-20.79,20.79-20.79s20.79,9.33,20.79,20.79-9.33,20.79-20.79,20.79-20.79-9.33-20.79-20.79ZM169.05,195.53c7.26,0,14.13,1.71,20.24,4.73l-12.08,12.08c-2.55-.71-5.24-1.1-8.02-1.1s-5.62.41-8.23,1.16l-12.14-12.14c6.11-3.03,12.97-4.73,20.24-4.73ZM123.31,241.27c0-7.26,1.71-14.13,4.73-20.24l12.28,12.28c-.68,2.5-1.04,5.12-1.04,7.83s.39,5.47,1.1,8.02l-12.34,12.34c-3.03-6.11-4.73-12.97-4.73-20.24ZM169.05,287.01c-7.26,0-14.13-1.71-20.24-4.73l12.33-12.33c2.56.71,5.25,1.1,8.04,1.1s5.33-.37,7.83-1.04l12.27,12.27c-6.11,3.03-12.97,4.73-20.24,4.73ZM197.93,249.38c.75-2.62,1.16-5.38,1.16-8.23s-.39-5.48-1.1-8.04l12.07-12.07c3.03,6.11,4.73,12.97,4.73,20.24s-1.71,14.13-4.73,20.24l-12.13-12.13Z"/>
    <path class="cls-5" d="M177.95,132.18l-8.24,3.72,7.06,15.64,8.24-3.72c2.64,3.48,5.81,6.43,9.35,8.78l-3.2,8.46,16.06,6.07,3.2-8.46c4.2.58,8.53.47,12.82-.4l3.72,8.24,15.64-7.06-3.72-8.24c3.48-2.64,6.43-5.81,8.78-9.35l8.46,3.2,6.07-16.06-8.46-3.2c.58-4.2.47-8.53-.4-12.82l8.24-3.72-7.06-15.64-8.24,3.72c-2.64-3.48-5.81-6.43-9.35-8.78l3.2-8.46-16.06-6.07-3.2,8.46c-4.2-.58-8.53-.47-12.82.4l-3.72-8.24-15.64,7.06,3.72,8.24c-3.48,2.64-6.43,5.81-8.78,9.35l-8.46-3.2-6.07,16.06,8.46,3.2c-.58,4.2-.47,8.53.4,12.82ZM239.99,113.58c6.07,13.43.07,29.29-13.36,35.36s-29.29.07-35.36-13.36c-6.07-13.43-.07-29.29,13.36-35.36,13.43-6.07,29.29-.07,35.36,13.36Z"/>
    <path class="cls-5" d="M199.75,131.67c3.97,8.79,14.32,12.7,23.11,8.73,8.79-3.97,12.7-14.32,8.73-23.11s-14.32-12.7-23.11-8.73c-8.79,3.97-12.7,14.32-8.73,23.11ZM210.67,113.41c6.1-2.76,13.31-.03,16.07,6.07,2.76,6.1.03,13.31-6.07,16.07s-13.31.03-16.07-6.07c-2.76-6.1-.03-13.31,6.07-16.07Z"/>
    <path class="cls-5" d="M302.75,212.36l6.84,2.54,4.82-12.98-6.84-2.54c.45-3.39.34-6.88-.39-10.34l6.63-3.04-5.77-12.58-6.63,3.04c-2.15-2.8-4.72-5.16-7.58-7.03l2.54-6.84-12.98-4.82-2.54,6.84c-3.39-.45-6.88-.34-10.33.39l-3.04-6.63-12.58,5.77,3.04,6.63c-2.8,2.15-5.16,4.72-7.03,7.58l-6.84-2.54-4.82,12.98,6.84,2.54c-.45,3.39-.34,6.88.39,10.34l-6.63,3.04,5.77,12.58,6.63-3.04c2.15,2.8,4.72,5.16,7.58,7.03l-2.54,6.84,12.98,4.82,2.54-6.84c3.39.45,6.88.34,10.33-.39l3.04,6.63,12.58-5.77-3.04-6.63c2.8-2.15,5.16-4.72,7.03-7.58ZM252.96,195.36c0-7.1,3.12-13.49,8.06-17.86l.06.13c0-.06,0-.12,0-.19,4.21-3.7,9.72-5.95,15.74-5.95,13.16,0,23.87,10.71,23.87,23.87s-10.71,23.87-23.87,23.87-23.87-10.71-23.87-23.87Z"/>
  </g>
</svg>